<svg width="24" height="24" viewBox="0 0 24 24" fill="none" xmlns="http://www.w3.org/2000/svg">
  <path d="M12.0001 2C9.67721 2 8.83098 2.29262 7.6355 2.77828C6.44002 3.26394 5.41938 3.97024 4.57376 4.87376C3.72814 5.77728 3.07648 6.84274 2.65298 8.00582C2.22948 9.1689 2.04 10.4089 2.04 11.6667C2.04 12.9245 2.22948 14.1645 2.65298 15.3276C3.07648 16.4907 3.72814 17.5561 4.57376 18.4596C5.41938 19.3632 6.44002 20.0695 7.6355 20.5551C8.83098 21.0408 10.0772 21.3334 12.0001 21.3334C13.923 21.3334 15.1692 21.0408 16.3647 20.5551C17.5602 20.0695 18.5808 19.3632 19.4264 18.4596C20.2721 17.5561 20.9237 16.4907 21.3472 15.3276C21.7707 14.1645 22.0001 12.9245 22.0001 11.6667C22.0001 10.4089 21.7707 9.1689 21.3472 8.00582C20.9237 6.84274 20.2721 5.77728 19.4264 4.87376C18.5808 3.97024 17.5602 3.26394 16.3647 2.77828C15.1692 2.29262 13.923 2 12.0001 2Z" fill="currentColor"/>
</svg>
