<svg width="120" height="33" viewBox="0 0 120 33" fill="none" xmlns="http://www.w3.org/2000/svg">
  <path d="M117.147 0.931641L120 32.9316L108.883 32.2649L106.03 6.26494V32.9316H95.7966V0.931641H109.55L112.403 24.9316L112.883 0.931641H117.147Z" fill="currentColor"/>
  <path d="M85.5634 0.931641H74.8467V32.9316H85.5634V0.931641Z" fill="currentColor"/>
  <path d="M56.1133 32.9316H67.3467V0.931641H61.3467L56.1133 16.9316V0.931641H44.88V32.9316H50.88L56.1133 15.5983V32.9316Z" fill="currentColor"/>
  <path d="M24.88 15.5983L31.3467 0.931641H41.5967L31.3467 24.9316V32.9316H20.63V24.9316L10.38 0.931641H20.63L24.88 15.5983Z" fill="currentColor"/>
  <path d="M0.13335 0.931641V32.9316L10.38 31.5983V0.931641H0.13335Z" fill="currentColor"/>
</svg>
